<?xml version="1.0" encoding="UTF-8"?>
<!DOCTYPE svg PUBLIC "-//W3C//DTD SVG 1.1//EN" "http://www.w3.org/Graphics/SVG/1.1/DTD/svg11.dtd">
<svg xmlns="http://www.w3.org/2000/svg" version="1.1" width="512px" height="175px" style="shape-rendering:geometricPrecision; text-rendering:geometricPrecision; image-rendering:optimizeQuality; fill-rule:evenodd; clip-rule:evenodd" xmlns:xlink="http://www.w3.org/1999/xlink">
<g><path style="opacity:0.294" fill="#fefffe" d="M 81.5,24.5 C 82.7943,26.0478 83.4609,28.0478 83.5,30.5C 82.7652,39.4288 81.7652,39.5955 80.5,31C 80.5657,28.7446 80.8991,26.578 81.5,24.5 Z"/></g>
<g><path style="opacity:0.431" fill="#fefffe" d="M 165.5,24.5 C 166.8,26.223 167.467,28.3897 167.5,31C 167.167,33.1667 166.833,35.3333 166.5,37.5C 165.508,33.2172 165.174,28.8839 165.5,24.5 Z"/></g>
<g><path style="opacity:0.509" fill="#fefffe" d="M 185.5,24.5 C 190.797,25.0325 190.797,25.8658 185.5,27C 189.223,28.2587 190.223,30.5921 188.5,34C 184.451,35.4844 182.451,34.1511 182.5,30C 182.12,27.2966 183.12,25.4632 185.5,24.5 Z M 184.5,29.5 C 185.5,29.5 186.5,29.5 187.5,29.5C 187.5,30.5 187.5,31.5 187.5,32.5C 186.5,32.5 185.5,32.5 184.5,32.5C 184.5,31.5 184.5,30.5 184.5,29.5 Z"/></g>
<g><path style="opacity:0.431" fill="#fefffe" d="M 259.5,24.5 C 260.8,26.223 261.467,28.3897 261.5,31C 261.167,33.1667 260.833,35.3333 260.5,37.5C 259.508,33.2172 259.174,28.8839 259.5,24.5 Z"/></g>
<g><path style="opacity:0.487" fill="#fefffe" d="M 14.5,27.5 C 16.3841,27.7118 17.7174,28.7118 18.5,30.5C 19.2807,29.2634 20.2807,28.2634 21.5,27.5C 22.8333,29.8333 22.8333,32.1667 21.5,34.5C 20.8076,33.9747 20.3076,33.3081 20,32.5C 19,33.8333 18,33.8333 17,32.5C 16.6924,33.3081 16.1924,33.9747 15.5,34.5C 14.5258,32.2573 14.1924,29.924 14.5,27.5 Z"/></g>
<g><path style="opacity:0.494" fill="#fefffe" d="M 24.5,27.5 C 27.2882,27.0769 29.2882,28.0769 30.5,30.5C 28.9223,31.2978 27.2556,31.7978 25.5,32C 30.3345,34.6832 32.3345,33.1832 31.5,27.5C 33.5,27.5 35.5,27.5 37.5,27.5C 37.5267,35.3936 38.1934,35.3936 39.5,27.5C 40.2508,28.376 40.7508,29.376 41,30.5C 43.4585,26.6189 44.9585,26.7855 45.5,31C 45.078,35.3311 44.2446,35.4977 43,31.5C 41.2613,33.2834 39.4279,34.9501 37.5,36.5C 35.2385,33.9062 33.0719,33.9062 31,36.5C 29.1741,34.9262 27.0075,34.0929 24.5,34C 23.232,31.8368 23.232,29.6702 24.5,27.5 Z M 33.5,29.5 C 35.4646,29.9483 35.7979,30.9483 34.5,32.5C 33.6143,31.675 33.281,30.675 33.5,29.5 Z"/></g>
<g><path style="opacity:0.482" fill="#fefffe" d="M 46.5,27.5 C 48.256,28.5521 48.9227,30.2188 48.5,32.5C 49.5,32.5 50.5,32.5 51.5,32.5C 52.0218,25.8638 52.8551,25.8638 54,32.5C 54.6715,26.7707 55.6715,26.4374 57,31.5C 57.6368,29.6969 58.8035,28.3636 60.5,27.5C 61.8333,29.8333 61.8333,32.1667 60.5,34.5C 59.7492,33.624 59.2492,32.624 59,31.5C 57.2613,33.2834 55.4279,34.9501 53.5,36.5C 51.4775,34.8267 49.1441,34.1601 46.5,34.5C 46.5,32.1667 46.5,29.8333 46.5,27.5 Z"/></g>
<g><path style="opacity:0.525" fill="#fefffe" d="M 62.5,27.5 C 64.0481,27.8212 64.7148,28.8212 64.5,30.5C 65.5,30.5 66.5,30.5 67.5,30.5C 68.2745,26.5561 68.9411,26.7228 69.5,31C 68.9411,35.2772 68.2745,35.4439 67.5,31.5C 66.5,31.5 65.5,31.5 64.5,31.5C 64.719,32.675 64.3857,33.675 63.5,34.5C 62.5258,32.2573 62.1924,29.924 62.5,27.5 Z"/></g>
<g><path style="opacity:0.543" fill="#fefffe" d="M 71.5,27.5 C 73.1439,27.2865 74.6439,27.6198 76,28.5C 76.4955,30.4727 76.6621,32.4727 76.5,34.5C 72.7593,35.4015 70.7593,34.0681 70.5,30.5C 75.7937,30.3178 75.7937,29.8178 70.5,29C 71.056,28.6174 71.3893,28.1174 71.5,27.5 Z"/></g>
<g><path style="opacity:0.508" fill="#fefffe" d="M 90.5,27.5 C 91.9311,27.8807 92.7645,28.8807 93,30.5C 94.0195,29.3128 95.1861,28.3128 96.5,27.5C 97.8333,29.8333 97.8333,32.1667 96.5,34.5C 95.7492,33.624 95.2492,32.624 95,31.5C 93.9805,32.6872 92.8139,33.6872 91.5,34.5C 90.5258,32.2573 90.1924,29.924 90.5,27.5 Z"/></g>
<g><path style="opacity:0.502" fill="#fefffe" d="M 115.5,29.5 C 114.167,30.5 114.167,31.5 115.5,32.5C 115.5,33.1667 115.833,33.5 116.5,33.5C 115.09,34.8284 113.924,34.4951 113,32.5C 111.667,35.1667 110.333,35.1667 109,32.5C 107.599,34.1922 105.766,34.8588 103.5,34.5C 103.5,33.5 103.5,32.5 103.5,31.5C 102.5,31.5 101.5,31.5 100.5,31.5C 99.7255,35.4439 99.0589,35.2772 98.5,31C 99.0589,26.7228 99.7255,26.5561 100.5,30.5C 101.5,30.5 102.5,30.5 103.5,30.5C 103.281,29.325 103.614,28.325 104.5,27.5C 105.308,29.4233 105.808,31.4233 106,33.5C 107.238,31.5653 107.738,29.5653 107.5,27.5C 108.192,28.0253 108.692,28.6919 109,29.5C 110.333,26.8333 111.667,26.8333 113,29.5C 114.071,26.8875 114.905,26.8875 115.5,29.5 Z"/></g>
<g><path style="opacity:0.567" fill="#fefffe" d="M 116.5,33.5 C 115.833,33.5 115.5,33.1667 115.5,32.5C 115.5,31.5 115.5,30.5 115.5,29.5C 119.165,26.3281 121.498,26.9947 122.5,31.5C 115.866,31.6768 115.866,32.1768 122.5,33C 120.635,34.7998 118.635,34.9664 116.5,33.5 Z"/></g>
<g><path style="opacity:0.523" fill="#fefffe" d="M 123.5,27.5 C 125.048,27.8212 125.715,28.8212 125.5,30.5C 126.5,30.5 127.5,30.5 128.5,30.5C 129.274,26.5561 129.941,26.7228 130.5,31C 129.941,35.2772 129.274,35.4439 128.5,31.5C 127.5,31.5 126.5,31.5 125.5,31.5C 125.719,32.675 125.386,33.675 124.5,34.5C 123.526,32.2573 123.192,29.924 123.5,27.5 Z"/></g>
<g><path style="opacity:0.516" fill="#fefffe" d="M 132.5,27.5 C 134.722,27.178 136.556,27.8446 138,29.5C 140.615,26.9299 143.282,26.9299 146,29.5C 146.308,28.6919 146.808,28.0253 147.5,27.5C 148.281,28.7287 148.781,30.062 149,31.5C 149.637,29.6969 150.803,28.3636 152.5,27.5C 153.833,29.8333 153.833,32.1667 152.5,34.5C 151.749,33.624 151.249,32.624 151,31.5C 149.579,34.6222 147.913,34.9556 146,32.5C 144.556,34.1554 142.722,34.822 140.5,34.5C 140.649,35.552 140.483,36.552 140,37.5C 138.681,35.7505 138.181,33.7505 138.5,31.5C 132.676,31.3466 132.343,32.0133 137.5,33.5C 131.74,35.2126 130.074,33.2126 132.5,27.5 Z M 140.5,29.5 C 141.833,29.5 143.167,29.5 144.5,29.5C 144.5,30.5 144.5,31.5 144.5,32.5C 143.167,32.5 141.833,32.5 140.5,32.5C 140.5,31.5 140.5,30.5 140.5,29.5 Z"/></g>
<g><path style="opacity:0.556" fill="#fefffe" d="M 155.5,27.5 C 157.167,27.5 158.833,27.5 160.5,27.5C 160.663,29.8568 160.497,32.1902 160,34.5C 159.692,33.6919 159.192,33.0253 158.5,32.5C 157.38,33.8334 156.047,34.3334 154.5,34C 154.543,31.8611 154.877,29.6945 155.5,27.5 Z"/></g>
<g><path style="opacity:0.481" fill="#fefffe" d="M 175.5,27.5 C 181.158,26.6794 182.825,28.846 180.5,34C 174.741,35.1387 173.074,32.972 175.5,27.5 Z M 176.5,29.5 C 177.5,29.5 178.5,29.5 179.5,29.5C 179.5,30.5 179.5,31.5 179.5,32.5C 178.5,32.5 177.5,32.5 176.5,32.5C 176.5,31.5 176.5,30.5 176.5,29.5 Z"/></g>
<g><path style="opacity:0.514" fill="#fefffe" d="M 204.5,29.5 C 206.44,26.9588 208.607,26.9588 211,29.5C 213.333,26.8333 215.667,26.8333 218,29.5C 219.754,27.75 221.921,27.0833 224.5,27.5C 224.343,28.8734 224.51,30.2068 225,31.5C 226.399,30.7734 227.899,30.2734 229.5,30C 224.519,28.6076 224.852,27.941 230.5,28C 231.423,30.0408 231.756,32.2075 231.5,34.5C 228.098,33.7653 224.765,33.7653 221.5,34.5C 220.006,34.2908 218.839,33.6241 218,32.5C 215.667,35.1667 213.333,35.1667 211,32.5C 209.004,34.0591 206.671,34.7258 204,34.5C 198.93,32.5465 194.596,33.5465 191,37.5C 190.502,34.1832 190.335,30.8499 190.5,27.5C 192.527,27.3379 194.527,27.5045 196.5,28C 197.191,29.0674 197.691,30.2341 198,31.5C 199.399,30.7734 200.899,30.2734 202.5,30C 201.062,29.7811 199.729,29.2811 198.5,28.5C 200.806,27.2291 202.806,27.5624 204.5,29.5 Z M 192.5,29.5 C 193.5,29.5 194.5,29.5 195.5,29.5C 195.5,30.5 195.5,31.5 195.5,32.5C 194.5,32.5 193.5,32.5 192.5,32.5C 192.5,31.5 192.5,30.5 192.5,29.5 Z M 204.5,29.5 C 207.598,29.4125 207.932,29.9125 205.5,31C 209.226,32.0432 208.893,32.5432 204.5,32.5C 204.5,31.5 204.5,30.5 204.5,29.5 Z M 212.5,29.5 C 213.833,29.5 215.167,29.5 216.5,29.5C 216.5,30.5 216.5,31.5 216.5,32.5C 215.167,32.5 213.833,32.5 212.5,32.5C 212.5,31.5 212.5,30.5 212.5,29.5 Z"/></g>
<g><path style="opacity:0.525" fill="#fefffe" d="M 232.5,27.5 C 234.048,27.8212 234.715,28.8212 234.5,30.5C 235.5,30.5 236.5,30.5 237.5,30.5C 238.274,26.5561 238.941,26.7228 239.5,31C 238.941,35.2772 238.274,35.4439 237.5,31.5C 236.5,31.5 235.5,31.5 234.5,31.5C 234.719,32.675 234.386,33.675 233.5,34.5C 232.526,32.2573 232.192,29.924 232.5,27.5 Z"/></g>
<g><path style="opacity:0.5" fill="#fefffe" d="M 240.5,27.5 C 242.045,28.2297 242.878,29.563 243,31.5C 243.637,29.6969 244.803,28.3636 246.5,27.5C 247.833,29.8333 247.833,32.1667 246.5,34.5C 245.749,33.624 245.249,32.624 245,31.5C 244.094,33.612 242.594,34.4453 240.5,34C 240.784,32.0438 240.784,29.8771 240.5,27.5 Z"/></g>
<g><path style="opacity:0.502" fill="#fefffe" d="M 249.5,27.5 C 253.241,26.5985 255.241,27.9319 255.5,31.5C 248.866,31.6768 248.866,32.1768 255.5,33C 249.249,35.9173 247.249,34.0839 249.5,27.5 Z"/></g>
<g><path style="opacity:0.501" fill="#fefffe" d="M 280.5,28.5 C 280.557,29.609 280.89,30.609 281.5,31.5C 279.473,31.3379 277.473,31.5045 275.5,32C 277.382,32.1981 279.048,32.6981 280.5,33.5C 276.324,35.4867 273.824,34.1533 273,29.5C 271.855,36.1362 271.022,36.1362 270.5,29.5C 266.556,28.7255 266.723,28.0589 271,27.5C 274.126,27.7767 277.292,28.11 280.5,28.5 Z"/></g>
<g><path style="opacity:0.521" fill="#fefffe" d="M 280.5,28.5 C 281.793,27.3552 282.959,27.6885 284,29.5C 285.444,27.8446 287.278,27.178 289.5,27.5C 289.5,28.5 289.5,29.5 289.5,30.5C 290.5,30.5 291.5,30.5 292.5,30.5C 293.274,26.5561 293.941,26.7228 294.5,31C 293.941,35.2772 293.274,35.4439 292.5,31.5C 291.5,31.5 290.5,31.5 289.5,31.5C 289.5,32.5 289.5,33.5 289.5,34.5C 287.278,34.822 285.444,34.1554 284,32.5C 282.959,34.3115 281.793,34.6448 280.5,33.5C 281.338,33.1583 281.672,32.4916 281.5,31.5C 282.715,30.221 282.382,29.221 280.5,28.5 Z M 286.5,28.5 C 287.613,29.9464 287.78,31.6131 287,33.5C 285.481,31.8608 285.314,30.1942 286.5,28.5 Z"/></g>
<g><path style="opacity:0.495" fill="#fefffe" d="M 302.5,32.5 C 297.359,35.9732 295.192,34.6399 296,28.5C 300.448,26.3391 302.615,27.6724 302.5,32.5 Z M 297.5,29.5 C 298.5,29.5 299.5,29.5 300.5,29.5C 300.5,30.5 300.5,31.5 300.5,32.5C 299.5,32.5 298.5,32.5 297.5,32.5C 297.5,31.5 297.5,30.5 297.5,29.5 Z"/></g>
<g><path style="opacity:0.471" fill="#fefffe" d="M 302.5,32.5 C 303.451,31.0813 303.784,29.4147 303.5,27.5C 305.5,27.5 307.5,27.5 309.5,27.5C 309.808,29.924 309.474,32.2573 308.5,34.5C 307.315,28.2397 305.981,28.0731 304.5,34C 303.184,34.5281 302.517,34.0281 302.5,32.5 Z"/></g>
<g><path style="opacity:0.538" fill="#fefffe" d="M 311.5,27.5 C 317.016,27.4734 318.349,29.64 315.5,34C 310.57,34.427 309.237,32.2604 311.5,27.5 Z M 312.5,29.5 C 313.5,29.5 314.5,29.5 315.5,29.5C 315.5,30.5 315.5,31.5 315.5,32.5C 314.5,32.5 313.5,32.5 312.5,32.5C 312.5,31.5 312.5,30.5 312.5,29.5 Z"/></g>
<g><path style="opacity:0.489" fill="#fefffe" d="M 318.5,27.5 C 320.833,27.5 323.167,27.5 325.5,27.5C 325.343,28.8734 325.51,30.2068 326,31.5C 326.637,29.6969 327.803,28.3636 329.5,27.5C 330.833,29.8333 330.833,32.1667 329.5,34.5C 328.749,33.624 328.249,32.624 328,31.5C 324.651,35.8127 323.151,35.146 323.5,29.5C 322.5,29.5 321.5,29.5 320.5,29.5C 320.785,31.288 320.452,32.9547 319.5,34.5C 318.526,32.2573 318.192,29.924 318.5,27.5 Z"/></g>
<g><path style="opacity:0.499" fill="#fefffe" d="M 331.5,27.5 C 333.045,28.2297 333.878,29.563 334,31.5C 334.637,29.6969 335.803,28.3636 337.5,27.5C 338.833,29.8333 338.833,32.1667 337.5,34.5C 336.749,33.624 336.249,32.624 336,31.5C 334.981,32.6872 333.814,33.6872 332.5,34.5C 331.526,32.2573 331.192,29.924 331.5,27.5 Z"/></g>
<g><path style="opacity:0.967" fill="#fe0000" d="M 13.5,55.5 C 22.8333,55.5 32.1667,55.5 41.5,55.5C 41.3354,58.5184 41.502,61.5184 42,64.5C 48,70.5 54,76.5 60,82.5C 68.8333,73.6667 77.6667,64.8333 86.5,56C 87.3317,55.3123 87.9984,55.479 88.5,56.5C 87.685,69.4547 87.185,82.4547 87,95.5C 77.9856,104.348 69.1522,113.348 60.5,122.5C 54.1812,116.682 48.0145,110.682 42,104.5C 41.5001,121.163 41.3334,137.83 41.5,154.5C 32.1667,154.5 22.8333,154.5 13.5,154.5C 13.5,121.5 13.5,88.5 13.5,55.5 Z"/></g>
<g><path style="opacity:0.914" fill="#f6931d" d="M 106.5,55.5 C 123.833,55.5 141.167,55.5 158.5,55.5C 158.5,65.1667 158.5,74.8333 158.5,84.5C 141.163,84.6666 123.83,84.4999 106.5,84C 105.179,74.5001 105.179,65.0001 106.5,55.5 Z"/></g>
<g><path style="opacity:0.931" fill="#0070bc" d="M 176.5,55.5 C 193.833,55.5 211.167,55.5 228.5,55.5C 228.5,65.1667 228.5,74.8333 228.5,84.5C 211.167,84.5 193.833,84.5 176.5,84.5C 176.5,74.8333 176.5,65.1667 176.5,55.5 Z"/></g>
<g><path style="opacity:0.935" fill="#fefffe" d="M 246.5,55.5 C 262.167,55.5 277.833,55.5 293.5,55.5C 293.5,65.1667 293.5,74.8333 293.5,84.5C 290.5,84.5 287.5,84.5 284.5,84.5C 284.5,107.833 284.5,131.167 284.5,154.5C 274.833,154.5 265.167,154.5 255.5,154.5C 255.5,131.167 255.5,107.833 255.5,84.5C 252.5,84.5 249.5,84.5 246.5,84.5C 246.5,74.8333 246.5,65.1667 246.5,55.5 Z"/></g>
<g><path style="opacity:0.924" fill="#fefffe" d="M 311.5,55.5 C 320.833,55.5 330.167,55.5 339.5,55.5C 339.5,65.1667 339.5,74.8333 339.5,84.5C 330.167,84.5 320.833,84.5 311.5,84.5C 311.5,74.8333 311.5,65.1667 311.5,55.5 Z"/></g>
<g><path style="opacity:0.91" fill="#f6931d" d="M 106.5,90.5 C 123.833,90.5 141.167,90.5 158.5,90.5C 158.5,100.167 158.5,109.833 158.5,119.5C 140.833,119.5 123.167,119.5 105.5,119.5C 105.194,109.75 105.527,100.084 106.5,90.5 Z"/></g>
<g><path style="opacity:0.928" fill="#0070bc" d="M 176.5,90.5 C 193.833,90.5 211.167,90.5 228.5,90.5C 228.5,100.167 228.5,109.833 228.5,119.5C 211.167,119.5 193.833,119.5 176.5,119.5C 176.5,109.833 176.5,100.167 176.5,90.5 Z"/></g>
<g><path style="opacity:0.812" fill="#fefffe" d="M 322.5,102.5 C 329.061,101.919 335.395,102.752 341.5,105C 348.966,112.324 349.466,120.157 343,128.5C 336.5,135 330,141.5 323.5,148C 332.16,148.5 340.827,148.666 349.5,148.5C 349.5,150.5 349.5,152.5 349.5,154.5C 337.5,154.5 325.5,154.5 313.5,154.5C 313.201,152.396 313.534,150.396 314.5,148.5C 323.859,140.308 332.359,131.308 340,121.5C 341.655,116.063 340.155,111.897 335.5,109C 328.033,107.334 321.367,108.834 315.5,113.5C 314.019,112.52 312.685,111.353 311.5,110C 314.574,106.476 318.241,103.976 322.5,102.5 Z"/></g>
<g><path style="opacity:0.838" fill="#fefffe" d="M 369.5,102.5 C 382.994,100.847 391.494,106.513 395,119.5C 397.742,130.63 395.575,140.63 388.5,149.5C 379.1,156.378 369.934,156.045 361,148.5C 352.76,135.74 352.426,122.74 360,109.5C 362.79,106.535 365.957,104.202 369.5,102.5 Z M 370.5,108.5 C 378.924,106.628 384.757,109.628 388,117.5C 390.458,126.43 389.791,135.096 386,143.5C 381.053,148.685 375.219,149.851 368.5,147C 363.426,141.968 360.76,135.801 360.5,128.5C 360.631,120.036 363.964,113.369 370.5,108.5 Z"/></g>
<g><path style="opacity:0.817" fill="#fefffe" d="M 410.5,102.5 C 417.061,101.919 423.395,102.752 429.5,105C 436.966,112.269 437.466,120.103 431,128.5C 424.5,135 418,141.5 411.5,148C 420.16,148.5 428.827,148.666 437.5,148.5C 437.5,150.5 437.5,152.5 437.5,154.5C 425.5,154.5 413.5,154.5 401.5,154.5C 401.34,152.801 401.506,151.134 402,149.5C 411.401,140.768 420.068,131.435 428,121.5C 428.667,118.5 428.667,115.5 428,112.5C 426.786,110.951 425.286,109.785 423.5,109C 416.033,107.334 409.367,108.834 403.5,113.5C 402.019,112.52 400.685,111.353 399.5,110C 402.818,106.825 406.485,104.325 410.5,102.5 Z"/></g>
<g><path style="opacity:0.872" fill="#fefffe" d="M 467.5,102.5 C 469.857,102.337 472.19,102.503 474.5,103C 466.046,113.409 457.713,123.909 449.5,134.5C 456.134,135.497 462.8,135.83 469.5,135.5C 469.5,131.5 469.5,127.5 469.5,123.5C 471.5,123.5 473.5,123.5 475.5,123.5C 475.5,127.5 475.5,131.5 475.5,135.5C 478.833,135.5 482.167,135.5 485.5,135.5C 485.5,137.167 485.5,138.833 485.5,140.5C 482.167,140.5 478.833,140.5 475.5,140.5C 475.5,145.167 475.5,149.833 475.5,154.5C 473.5,154.5 471.5,154.5 469.5,154.5C 469.5,149.833 469.5,145.167 469.5,140.5C 459.833,140.5 450.167,140.5 440.5,140.5C 440.34,138.801 440.506,137.134 441,135.5C 450.047,124.625 458.88,113.625 467.5,102.5 Z"/></g>
<g><path style="opacity:0.945" fill="#f6931d" d="M 105.5,126.5 C 123.167,126.5 140.833,126.5 158.5,126.5C 158.5,135.833 158.5,145.167 158.5,154.5C 140.833,154.5 123.167,154.5 105.5,154.5C 105.5,145.167 105.5,135.833 105.5,126.5 Z"/></g>
<g><path style="opacity:0.964" fill="#0070bc" d="M 176.5,126.5 C 193.833,126.5 211.167,126.5 228.5,126.5C 228.5,135.833 228.5,145.167 228.5,154.5C 211.167,154.5 193.833,154.5 176.5,154.5C 176.5,145.167 176.5,135.833 176.5,126.5 Z"/></g>
</svg>
