<?xml version="1.0" encoding="UTF-8"?>
<!DOCTYPE svg PUBLIC "-//W3C//DTD SVG 1.1//EN" "http://www.w3.org/Graphics/SVG/1.1/DTD/svg11.dtd">
<svg xmlns="http://www.w3.org/2000/svg" version="1.1" width="1238px" height="423px" style="shape-rendering:geometricPrecision; text-rendering:geometricPrecision; image-rendering:optimizeQuality; fill-rule:evenodd; clip-rule:evenodd" xmlns:xlink="http://www.w3.org/1999/xlink">
<g><path style="opacity:0.677" fill="#000000" d="M 455.5,60.5 C 457.465,60.9483 457.798,61.9483 456.5,63.5C 452.167,63.8355 448.5,65.5021 445.5,68.5C 448.234,68.4992 451.234,68.6658 454.5,69C 459.833,73.6667 459.833,78.3333 454.5,83C 446.212,85.1926 441.879,82.0259 441.5,73.5C 441.857,69.8815 443.191,66.7149 445.5,64C 448.85,62.5137 452.184,61.347 455.5,60.5 Z M 447.5,71.5 C 454.61,70.9037 456.61,73.7371 453.5,80C 449.003,82.4185 446.337,81.0851 445.5,76C 445.519,74.167 446.185,72.667 447.5,71.5 Z"/></g>
<g><path style="opacity:0.686" fill="#000000" d="M 197.5,61.5 C 198.5,61.5 199.5,61.5 200.5,61.5C 200.5,70.8333 200.5,80.1667 200.5,89.5C 199.5,89.5 198.5,89.5 197.5,89.5C 197.5,80.1667 197.5,70.8333 197.5,61.5 Z"/></g>
<g><path style="opacity:0.686" fill="#000000" d="M 401.5,61.5 C 402.5,61.5 403.5,61.5 404.5,61.5C 404.5,70.8333 404.5,80.1667 404.5,89.5C 403.5,89.5 402.5,89.5 401.5,89.5C 401.5,80.1667 401.5,70.8333 401.5,61.5 Z"/></g>
<g><path style="opacity:0.686" fill="#000000" d="M 629.5,61.5 C 630.5,61.5 631.5,61.5 632.5,61.5C 632.5,70.8333 632.5,80.1667 632.5,89.5C 631.5,89.5 630.5,89.5 629.5,89.5C 629.5,80.1667 629.5,70.8333 629.5,61.5 Z"/></g>
<g><path style="opacity:0.69" fill="#000000" d="M 36.5,68.5 C 38.1439,68.2865 39.6439,68.6198 41,69.5C 42.6667,72.5 44.3333,75.5 46,78.5C 47.7127,73.987 50.546,70.6537 54.5,68.5C 54.5,73.5 54.5,78.5 54.5,83.5C 53.5,83.5 52.5,83.5 51.5,83.5C 51.6641,80.8127 51.4974,78.146 51,75.5C 49.5787,78.0094 47.9121,80.3428 46,82.5C 43.7519,79.672 41.7519,76.672 40,73.5C 39.5017,76.8168 39.335,80.1501 39.5,83.5C 38.5,83.5 37.5,83.5 36.5,83.5C 36.5,78.5 36.5,73.5 36.5,68.5 Z"/></g>
<g><path style="opacity:0.717" fill="#000000" d="M 61.5,68.5 C 64.9783,68.1842 68.3117,68.6842 71.5,70C 73.0163,71.897 73.683,74.0637 73.5,76.5C 69.1539,76.3343 64.8206,76.501 60.5,77C 61.1667,78 61.8333,79 62.5,80C 65.8678,80.5428 69.2011,80.3761 72.5,79.5C 72.6399,81.1238 71.9733,82.2904 70.5,83C 63.6308,85.0691 59.2975,82.7358 57.5,76C 57.9937,72.9919 59.3271,70.4919 61.5,68.5 Z M 64.5,70.5 C 67.0606,70.4469 69.0606,71.4469 70.5,73.5C 67.5,74.8333 64.5,74.8333 61.5,73.5C 62.3398,72.265 63.3398,71.265 64.5,70.5 Z"/></g>
<g><path style="opacity:0.768" fill="#000000" d="M 77.5,68.5 C 81.5,68.5 85.5,68.5 89.5,68.5C 89.5,72.8333 89.5,77.1667 89.5,81.5C 90.5,81.5 91.5,81.5 92.5,81.5C 92.9492,83.9775 92.2825,85.9775 90.5,87.5C 89.5713,86.3112 89.238,84.9778 89.5,83.5C 85.1667,83.5 80.8333,83.5 76.5,83.5C 76.1008,88.6229 75.1008,88.7896 73.5,84C 76.3667,79.3709 77.7,74.2043 77.5,68.5 Z M 80.5,71.5 C 82.5,71.5 84.5,71.5 86.5,71.5C 86.5,74.8333 86.5,78.1667 86.5,81.5C 83.8127,81.6641 81.146,81.4974 78.5,81C 79.2074,77.8388 79.8741,74.6722 80.5,71.5 Z"/></g>
<g><path style="opacity:0.716" fill="#000000" d="M 95.5,68.5 C 96.5,68.5 97.5,68.5 98.5,68.5C 98.3354,71.5184 98.502,74.5184 99,77.5C 101.872,74.9634 104.372,72.1301 106.5,69C 107.793,68.51 109.127,68.3433 110.5,68.5C 110.5,73.5 110.5,78.5 110.5,83.5C 109.5,83.5 108.5,83.5 107.5,83.5C 107.665,80.1501 107.498,76.8168 107,73.5C 103.796,76.3688 100.963,79.5354 98.5,83C 97.552,83.4828 96.552,83.6495 95.5,83.5C 95.5,78.5 95.5,73.5 95.5,68.5 Z"/></g>
<g><path style="opacity:0.786" fill="#000000" d="M 114.5,68.5 C 115.5,68.5 116.5,68.5 117.5,68.5C 117.5,72.8333 117.5,77.1667 117.5,81.5C 120.5,81.5 123.5,81.5 126.5,81.5C 126.5,77.1667 126.5,72.8333 126.5,68.5C 127.5,68.5 128.5,68.5 129.5,68.5C 129.161,73.9633 129.828,79.2966 131.5,84.5C 130.032,88.2912 129.032,87.9579 128.5,83.5C 123.833,83.5 119.167,83.5 114.5,83.5C 114.5,78.5 114.5,73.5 114.5,68.5 Z"/></g>
<g><path style="opacity:0.716" fill="#000000" d="M 134.5,68.5 C 135.5,68.5 136.5,68.5 137.5,68.5C 137.335,71.5184 137.502,74.5184 138,77.5C 140.872,74.9634 143.372,72.1301 145.5,69C 146.793,68.51 148.127,68.3433 149.5,68.5C 149.5,73.5 149.5,78.5 149.5,83.5C 148.5,83.5 147.5,83.5 146.5,83.5C 146.665,80.1501 146.498,76.8168 146,73.5C 142.796,76.3688 139.963,79.5354 137.5,83C 136.552,83.4828 135.552,83.6495 134.5,83.5C 134.5,78.5 134.5,73.5 134.5,68.5 Z"/></g>
<g><path style="opacity:0.773" fill="#000000" d="M 153.5,68.5 C 154.5,68.5 155.5,68.5 156.5,68.5C 156.5,70.8333 156.5,73.1667 156.5,75.5C 159.5,75.5 162.5,75.5 165.5,75.5C 165.5,73.1667 165.5,70.8333 165.5,68.5C 166.5,68.5 167.5,68.5 168.5,68.5C 168.5,73.5 168.5,78.5 168.5,83.5C 167.5,83.5 166.5,83.5 165.5,83.5C 165.5,81.5 165.5,79.5 165.5,77.5C 162.5,77.5 159.5,77.5 156.5,77.5C 156.5,79.5 156.5,81.5 156.5,83.5C 155.5,83.5 154.5,83.5 153.5,83.5C 153.5,78.5 153.5,73.5 153.5,68.5 Z"/></g>
<g><path style="opacity:0.73" fill="#000000" d="M 174.5,68.5 C 177.518,68.3354 180.518,68.502 183.5,69C 184,69.5 184.5,70 185,70.5C 185.499,74.8206 185.666,79.1539 185.5,83.5C 181.818,83.6653 178.152,83.4986 174.5,83C 171.833,80.3333 171.833,77.6667 174.5,75C 177.146,74.5026 179.813,74.3359 182.5,74.5C 182.542,72.1511 181.375,70.8178 179,70.5C 177.237,70.9755 175.57,71.6422 174,72.5C 172.07,70.9229 172.237,69.5896 174.5,68.5 Z M 177.5,76.5 C 179.167,76.5 180.833,76.5 182.5,76.5C 182.648,79.3523 181.314,81.019 178.5,81.5C 175.031,80.4311 174.698,78.7644 177.5,76.5 Z"/></g>
<g><path style="opacity:0.715" fill="#000000" d="M 220.5,68.5 C 221.5,68.5 222.5,68.5 223.5,68.5C 223.335,71.8499 223.502,75.1832 224,78.5C 227.204,75.6312 230.037,72.4646 232.5,69C 233.448,68.5172 234.448,68.3505 235.5,68.5C 235.5,73.5 235.5,78.5 235.5,83.5C 234.5,83.5 233.5,83.5 232.5,83.5C 232.665,80.4816 232.498,77.4816 232,74.5C 229.128,77.0366 226.628,79.8699 224.5,83C 223.207,83.49 221.873,83.6567 220.5,83.5C 220.5,78.5 220.5,73.5 220.5,68.5 Z"/></g>
<g><path style="opacity:0.796" fill="#000000" d="M 240.5,68.5 C 241.5,68.5 242.5,68.5 243.5,68.5C 243.5,70.8333 243.5,73.1667 243.5,75.5C 246.167,75.5 248.833,75.5 251.5,75.5C 251.5,73.1667 251.5,70.8333 251.5,68.5C 252.5,68.5 253.5,68.5 254.5,68.5C 254.5,73.5 254.5,78.5 254.5,83.5C 253.5,83.5 252.5,83.5 251.5,83.5C 251.5,81.5 251.5,79.5 251.5,77.5C 248.833,77.5 246.167,77.5 243.5,77.5C 243.5,79.5 243.5,81.5 243.5,83.5C 242.5,83.5 241.5,83.5 240.5,83.5C 240.5,78.5 240.5,73.5 240.5,68.5 Z"/></g>
<g><path style="opacity:0.722" fill="#000000" d="M 258.5,68.5 C 259.552,68.3505 260.552,68.5172 261.5,69C 262.826,71.1584 264.493,72.9918 266.5,74.5C 267.466,72.604 267.799,70.604 267.5,68.5C 268.5,68.5 269.5,68.5 270.5,68.5C 270.5,70.5 270.5,72.5 270.5,74.5C 271.552,74.6495 272.552,74.4828 273.5,74C 274.827,70.6403 277.16,68.9736 280.5,69C 279.152,71.0104 277.818,73.0104 276.5,75C 277.755,77.9223 279.422,80.589 281.5,83C 280.167,83.6667 278.833,83.6667 277.5,83C 276.167,81 274.833,79 273.5,77C 272.552,76.5172 271.552,76.3505 270.5,76.5C 270.5,78.8333 270.5,81.1667 270.5,83.5C 269.5,83.5 268.5,83.5 267.5,83.5C 267.808,81.076 267.474,78.7427 266.5,76.5C 264.673,78.5 263.006,80.6667 261.5,83C 260.167,83.6667 258.833,83.6667 257.5,83C 259.363,80.636 261.029,78.136 262.5,75.5C 261.111,73.1324 259.778,70.7991 258.5,68.5 Z"/></g>
<g><path style="opacity:0.713" fill="#000000" d="M 285.5,68.5 C 291.971,66.7842 295.971,69.1176 297.5,75.5C 293.167,76.1667 288.833,76.8333 284.5,77.5C 284.977,78.4776 285.643,79.3109 286.5,80C 289.23,80.7284 291.897,80.5617 294.5,79.5C 296.271,80.0354 296.604,80.8687 295.5,82C 285.605,85.9914 281.105,82.8247 282,72.5C 282.69,70.6498 283.856,69.3164 285.5,68.5 Z M 287.5,70.5 C 290.061,70.4469 292.061,71.4469 293.5,73.5C 290.5,74.8333 287.5,74.8333 284.5,73.5C 285.34,72.265 286.34,71.265 287.5,70.5 Z"/></g>
<g><path style="opacity:0.796" fill="#000000" d="M 300.5,68.5 C 301.5,68.5 302.5,68.5 303.5,68.5C 303.5,70.8333 303.5,73.1667 303.5,75.5C 306.167,75.5 308.833,75.5 311.5,75.5C 311.5,73.1667 311.5,70.8333 311.5,68.5C 312.5,68.5 313.5,68.5 314.5,68.5C 314.5,73.5 314.5,78.5 314.5,83.5C 313.5,83.5 312.5,83.5 311.5,83.5C 311.5,81.5 311.5,79.5 311.5,77.5C 308.833,77.5 306.167,77.5 303.5,77.5C 303.5,79.5 303.5,81.5 303.5,83.5C 302.5,83.5 301.5,83.5 300.5,83.5C 300.5,78.5 300.5,73.5 300.5,68.5 Z"/></g>
<g><path style="opacity:0.717" fill="#000000" d="M 321.5,68.5 C 324.978,68.1842 328.312,68.6842 331.5,70C 333.016,71.897 333.683,74.0637 333.5,76.5C 329.154,76.3343 324.821,76.501 320.5,77C 321.167,78 321.833,79 322.5,80C 325.868,80.5428 329.201,80.3761 332.5,79.5C 332.64,81.1238 331.973,82.2904 330.5,83C 323.631,85.0691 319.297,82.7358 317.5,76C 317.994,72.9919 319.327,70.4919 321.5,68.5 Z M 324.5,70.5 C 327.061,70.4469 329.061,71.4469 330.5,73.5C 327.5,74.8333 324.5,74.8333 321.5,73.5C 322.34,72.265 323.34,71.265 324.5,70.5 Z"/></g>
<g><path style="opacity:0.709" fill="#000000" d="M 337.5,68.5 C 341.345,68.7114 345.345,68.8781 349.5,69C 351.333,69.5 352.5,70.6667 353,72.5C 354.38,82.1534 350.38,85.4867 341,82.5C 340.503,84.8098 340.337,87.1432 340.5,89.5C 339.5,89.5 338.5,89.5 337.5,89.5C 337.5,82.5 337.5,75.5 337.5,68.5 Z M 344.5,70.5 C 350.579,71.7766 351.913,74.9432 348.5,80C 342.507,81.6683 340.007,79.5017 341,73.5C 342.145,72.3636 343.312,71.3636 344.5,70.5 Z"/></g>
<g><path style="opacity:0.715" fill="#000000" d="M 356.5,68.5 C 357.5,68.5 358.5,68.5 359.5,68.5C 359.335,71.8499 359.502,75.1832 360,78.5C 363.204,75.6312 366.037,72.4646 368.5,69C 369.448,68.5172 370.448,68.3505 371.5,68.5C 371.5,73.5 371.5,78.5 371.5,83.5C 370.5,83.5 369.5,83.5 368.5,83.5C 368.665,80.4816 368.498,77.4816 368,74.5C 365.128,77.0366 362.628,79.8699 360.5,83C 359.207,83.49 357.873,83.6567 356.5,83.5C 356.5,78.5 356.5,73.5 356.5,68.5 Z"/></g>
<g><path style="opacity:0.722" fill="#000000" d="M 377.5,68.5 C 381.167,68.5 384.833,68.5 388.5,68.5C 388.5,73.5 388.5,78.5 388.5,83.5C 387.5,83.5 386.5,83.5 385.5,83.5C 385.5,81.8333 385.5,80.1667 385.5,78.5C 384.127,78.3433 382.793,78.51 381.5,79C 380.442,82.2909 378.442,83.4576 375.5,82.5C 376.383,81.452 377.05,80.2853 377.5,79C 374.874,75.4509 374.874,71.9509 377.5,68.5 Z M 378.5,71.5 C 380.833,71.5 383.167,71.5 385.5,71.5C 385.5,73.1667 385.5,74.8333 385.5,76.5C 383.473,76.6621 381.473,76.4955 379.5,76C 378.62,74.6439 378.286,73.1439 378.5,71.5 Z"/></g>
<g><path style="opacity:0.705" fill="#000000" d="M 427.5,68.5 C 438.515,68.0652 441.515,72.5652 436.5,82C 431.962,84.3034 427.795,83.8034 424,80.5C 421.458,75.3612 422.624,71.3612 427.5,68.5 Z M 429.5,70.5 C 435.833,71.3346 437.5,74.5012 434.5,80C 429.967,81.6279 426.967,80.2945 425.5,76C 426.007,73.4547 427.341,71.6214 429.5,70.5 Z"/></g>
<g><path style="opacity:0.709" fill="#000000" d="M 461.5,68.5 C 465.345,68.7114 469.345,68.8781 473.5,69C 475.333,69.5 476.5,70.6667 477,72.5C 478.38,82.1534 474.38,85.4867 465,82.5C 464.503,84.8098 464.337,87.1432 464.5,89.5C 463.5,89.5 462.5,89.5 461.5,89.5C 461.5,82.5 461.5,75.5 461.5,68.5 Z M 468.5,70.5 C 474.579,71.7766 475.913,74.9432 472.5,80C 466.507,81.6683 464.007,79.5017 465,73.5C 466.145,72.3636 467.312,71.3636 468.5,70.5 Z"/></g>
<g><path style="opacity:0.695" fill="#000000" d="M 482.5,68.5 C 486.007,67.9935 489.174,68.6602 492,70.5C 493.367,74.6996 493.867,79.0329 493.5,83.5C 489.986,83.2361 486.319,83.0694 482.5,83C 478.524,80.3826 478.524,77.7159 482.5,75C 485.167,74.6667 487.833,74.3333 490.5,74C 488.29,69.9786 485.457,69.4786 482,72.5C 480.07,70.9229 480.237,69.5896 482.5,68.5 Z M 484.5,76.5 C 491.939,76.2613 492.439,77.928 486,81.5C 482.372,80.453 481.872,78.7864 484.5,76.5 Z"/></g>
<g><path style="opacity:0.689" fill="#000000" d="M 497.5,68.5 C 500.518,68.3354 503.518,68.502 506.5,69C 507.804,69.804 508.471,70.9707 508.5,72.5C 507.312,74.644 507.312,76.8107 508.5,79C 508.646,81.1879 507.646,82.5212 505.5,83C 502.438,83.7415 499.438,83.5748 496.5,82.5C 495.167,81.5 495.167,80.5 496.5,79.5C 499.39,81.4691 502.39,81.8025 505.5,80.5C 505.719,79.325 505.386,78.325 504.5,77.5C 502.775,76.9851 501.108,76.3184 499.5,75.5C 501.851,74.9882 503.851,73.9882 505.5,72.5C 503.453,70.2643 501.12,69.931 498.5,71.5C 496.197,71.1237 495.863,70.1237 497.5,68.5 Z"/></g>
<g><path style="opacity:0.676" fill="#000000" d="M 515.5,68.5 C 526.528,67.401 529.861,71.901 525.5,82C 515.605,85.9914 511.105,82.8247 512,72.5C 512.69,70.6498 513.856,69.3164 515.5,68.5 Z M 518.5,70.5 C 524.579,71.7766 525.913,74.9432 522.5,80C 516.507,81.6683 514.007,79.5017 515,73.5C 516.145,72.3636 517.312,71.3636 518.5,70.5 Z"/></g>
<g><path style="opacity:0.76" fill="#000000" d="M 530.5,68.5 C 534.571,68.2338 538.571,68.5672 542.5,69.5C 543.76,71.3529 543.76,73.1862 542.5,75C 545.167,77.6667 545.167,80.3333 542.5,83C 538.514,83.4988 534.514,83.6655 530.5,83.5C 530.5,78.5 530.5,73.5 530.5,68.5 Z M 533.5,70.5 C 535.527,70.3379 537.527,70.5045 539.5,71C 540.833,72 540.833,73 539.5,74C 537.527,74.4955 535.527,74.6621 533.5,74.5C 533.5,73.1667 533.5,71.8333 533.5,70.5 Z M 533.5,76.5 C 535.527,76.3379 537.527,76.5045 539.5,77C 541.592,77.9525 541.925,79.2859 540.5,81C 538.19,81.4966 535.857,81.6633 533.5,81.5C 533.5,79.8333 533.5,78.1667 533.5,76.5 Z"/></g>
<g><path style="opacity:0.73" fill="#000000" d="M 549.5,68.5 C 552.518,68.3354 555.518,68.502 558.5,69C 559,69.5 559.5,70 560,70.5C 560.499,74.8206 560.666,79.1539 560.5,83.5C 556.818,83.6653 553.152,83.4986 549.5,83C 546.833,80.3333 546.833,77.6667 549.5,75C 552.146,74.5026 554.813,74.3359 557.5,74.5C 557.542,72.1511 556.375,70.8178 554,70.5C 552.237,70.9755 550.57,71.6422 549,72.5C 547.07,70.9229 547.237,69.5896 549.5,68.5 Z M 552.5,76.5 C 554.167,76.5 555.833,76.5 557.5,76.5C 557.648,79.3523 556.314,81.019 553.5,81.5C 550.031,80.4311 549.698,78.7644 552.5,76.5 Z"/></g>
<g><path style="opacity:0.773" fill="#000000" d="M 564.5,68.5 C 565.5,68.5 566.5,68.5 567.5,68.5C 567.5,70.8333 567.5,73.1667 567.5,75.5C 570.5,75.5 573.5,75.5 576.5,75.5C 576.5,73.1667 576.5,70.8333 576.5,68.5C 577.5,68.5 578.5,68.5 579.5,68.5C 579.5,73.5 579.5,78.5 579.5,83.5C 578.5,83.5 577.5,83.5 576.5,83.5C 576.5,81.5 576.5,79.5 576.5,77.5C 573.5,77.5 570.5,77.5 567.5,77.5C 567.5,79.5 567.5,81.5 567.5,83.5C 566.5,83.5 565.5,83.5 564.5,83.5C 564.5,78.5 564.5,73.5 564.5,68.5 Z"/></g>
<g><path style="opacity:0.715" fill="#000000" d="M 583.5,68.5 C 584.5,68.5 585.5,68.5 586.5,68.5C 586.335,71.8499 586.502,75.1832 587,78.5C 590.204,75.6312 593.037,72.4646 595.5,69C 596.448,68.5172 597.448,68.3505 598.5,68.5C 598.5,73.5 598.5,78.5 598.5,83.5C 597.5,83.5 596.5,83.5 595.5,83.5C 595.665,80.4816 595.498,77.4816 595,74.5C 592.128,77.0366 589.628,79.8699 587.5,83C 586.207,83.49 584.873,83.6567 583.5,83.5C 583.5,78.5 583.5,73.5 583.5,68.5 Z"/></g>
<g><path style="opacity:0.713" fill="#000000" d="M 606.5,68.5 C 612.971,66.7842 616.971,69.1176 618.5,75.5C 614.167,76.1667 609.833,76.8333 605.5,77.5C 605.977,78.4776 606.643,79.3109 607.5,80C 610.23,80.7284 612.897,80.5617 615.5,79.5C 617.271,80.0354 617.604,80.8687 616.5,82C 606.605,85.9914 602.105,82.8247 603,72.5C 603.69,70.6498 604.856,69.3164 606.5,68.5 Z M 608.5,70.5 C 611.061,70.4469 613.061,71.4469 614.5,73.5C 611.5,74.8333 608.5,74.8333 605.5,73.5C 606.34,72.265 607.34,71.265 608.5,70.5 Z"/></g>
<g><path style="opacity:0.725" fill="#000000" d="M 649.5,68.5 C 654.167,68.5 658.833,68.5 663.5,68.5C 663.5,69.5 663.5,70.5 663.5,71.5C 661.833,71.5 660.167,71.5 658.5,71.5C 658.5,75.5 658.5,79.5 658.5,83.5C 657.5,83.5 656.5,83.5 655.5,83.5C 655.5,79.5 655.5,75.5 655.5,71.5C 653.801,71.6602 652.134,71.4935 650.5,71C 649.748,70.3292 649.414,69.4959 649.5,68.5 Z"/></g>
<g><path style="opacity:0.713" fill="#000000" d="M 667.5,68.5 C 673.971,66.7842 677.971,69.1176 679.5,75.5C 675.167,76.1667 670.833,76.8333 666.5,77.5C 666.977,78.4776 667.643,79.3109 668.5,80C 671.23,80.7284 673.897,80.5617 676.5,79.5C 678.271,80.0354 678.604,80.8687 677.5,82C 667.605,85.9914 663.105,82.8247 664,72.5C 664.69,70.6498 665.856,69.3164 667.5,68.5 Z M 669.5,70.5 C 672.061,70.4469 674.061,71.4469 675.5,73.5C 672.5,74.8333 669.5,74.8333 666.5,73.5C 667.34,72.265 668.34,71.265 669.5,70.5 Z"/></g>
<g><path style="opacity:0.676" fill="#000000" d="M 680.5,69.5 C 681.708,68.218 683.042,68.218 684.5,69.5C 685.48,70.9814 686.647,72.3147 688,73.5C 689.202,70.0607 691.369,68.7274 694.5,69.5C 692.642,71.5241 690.975,73.6908 689.5,76C 691.126,78.6277 693.126,80.961 695.5,83C 694.167,83.6667 692.833,83.6667 691.5,83C 690.274,81.3651 688.941,79.8651 687.5,78.5C 685.981,81.5598 683.648,83.0598 680.5,83C 682.363,80.636 684.029,78.136 685.5,75.5C 683.815,73.4293 682.148,71.4293 680.5,69.5 Z"/></g>
<g><path style="opacity:0.796" fill="#000000" d="M 697.5,68.5 C 698.5,68.5 699.5,68.5 700.5,68.5C 700.5,70.8333 700.5,73.1667 700.5,75.5C 703.167,75.5 705.833,75.5 708.5,75.5C 708.5,73.1667 708.5,70.8333 708.5,68.5C 709.5,68.5 710.5,68.5 711.5,68.5C 711.5,73.5 711.5,78.5 711.5,83.5C 710.5,83.5 709.5,83.5 708.5,83.5C 708.5,81.5 708.5,79.5 708.5,77.5C 705.833,77.5 703.167,77.5 700.5,77.5C 700.5,79.5 700.5,81.5 700.5,83.5C 699.5,83.5 698.5,83.5 697.5,83.5C 697.5,78.5 697.5,73.5 697.5,68.5 Z"/></g>
<g><path style="opacity:0.705" fill="#000000" d="M 719.5,68.5 C 730.515,68.0652 733.515,72.5652 728.5,82C 723.962,84.3034 719.795,83.8034 716,80.5C 713.458,75.3612 714.624,71.3612 719.5,68.5 Z M 721.5,70.5 C 727.833,71.3346 729.5,74.5012 726.5,80C 721.967,81.6279 718.967,80.2945 717.5,76C 718.007,73.4547 719.341,71.6214 721.5,70.5 Z"/></g>
<g><path style="opacity:0.723" fill="#000000" d="M 735.5,68.5 C 739.5,68.5 743.5,68.5 747.5,68.5C 747.5,73.5 747.5,78.5 747.5,83.5C 746.5,83.5 745.5,83.5 744.5,83.5C 744.5,79.5 744.5,75.5 744.5,71.5C 742.167,71.5 739.833,71.5 737.5,71.5C 737.957,75.5839 737.29,79.4172 735.5,83C 734.207,83.49 732.873,83.6567 731.5,83.5C 731.5,82.5 731.5,81.5 731.5,80.5C 732.5,80.5 733.5,80.5 734.5,80.5C 734.505,76.4659 734.838,72.4659 735.5,68.5 Z"/></g>
<g><path style="opacity:0.676" fill="#000000" d="M 755.5,68.5 C 766.528,67.401 769.861,71.901 765.5,82C 755.605,85.9914 751.105,82.8247 752,72.5C 752.69,70.6498 753.856,69.3164 755.5,68.5 Z M 758.5,70.5 C 764.579,71.7766 765.913,74.9432 762.5,80C 756.507,81.6683 754.007,79.5017 755,73.5C 756.145,72.3636 757.312,71.3636 758.5,70.5 Z"/></g>
<g><path style="opacity:0.711" fill="#000000" d="M 770.5,68.5 C 774.555,68.1758 778.555,68.5091 782.5,69.5C 782.291,70.086 781.957,70.586 781.5,71C 778.854,71.4974 776.187,71.6641 773.5,71.5C 773.5,75.5 773.5,79.5 773.5,83.5C 772.5,83.5 771.5,83.5 770.5,83.5C 770.5,78.5 770.5,73.5 770.5,68.5 Z"/></g>
<g><path style="opacity:0.716" fill="#000000" d="M 784.5,68.5 C 785.5,68.5 786.5,68.5 787.5,68.5C 787.335,71.5184 787.502,74.5184 788,77.5C 790.872,74.9634 793.372,72.1301 795.5,69C 796.793,68.51 798.127,68.3433 799.5,68.5C 799.5,73.5 799.5,78.5 799.5,83.5C 798.5,83.5 797.5,83.5 796.5,83.5C 796.665,80.1501 796.498,76.8168 796,73.5C 792.796,76.3688 789.963,79.5354 787.5,83C 786.552,83.4828 785.552,83.6495 784.5,83.5C 784.5,78.5 784.5,73.5 784.5,68.5 Z"/></g>
<g><path style="opacity:0.715" fill="#000000" d="M 803.5,68.5 C 804.5,68.5 805.5,68.5 806.5,68.5C 806.335,71.8499 806.502,75.1832 807,78.5C 810.204,75.6312 813.037,72.4646 815.5,69C 816.448,68.5172 817.448,68.3505 818.5,68.5C 818.5,73.5 818.5,78.5 818.5,83.5C 817.5,83.5 816.5,83.5 815.5,83.5C 815.665,80.4816 815.498,77.4816 815,74.5C 812.128,77.0366 809.628,79.8699 807.5,83C 806.207,83.49 804.873,83.6567 803.5,83.5C 803.5,78.5 803.5,73.5 803.5,68.5 Z"/></g>
<g><path style="opacity:0.983" fill="#fe0000" d="M 33.5,136.5 C 55.8333,136.5 78.1667,136.5 100.5,136.5C 100.334,142.842 100.5,149.175 101,155.5C 116.014,170.681 131.181,185.681 146.5,200.5C 168.167,179.167 189.833,157.833 211.5,136.5C 212.667,167.828 212.833,199.161 212,230.5C 190.5,252 169,273.5 147.5,295C 146.833,295.667 146.167,295.667 145.5,295C 130.667,280.167 115.833,265.333 101,250.5C 100.5,291.499 100.333,332.499 100.5,373.5C 78.1667,373.5 55.8333,373.5 33.5,373.5C 33.5,294.5 33.5,215.5 33.5,136.5 Z"/></g>
<g><path style="opacity:0.981" fill="#f6931d" d="M 257.5,136.5 C 299.167,136.5 340.833,136.5 382.5,136.5C 382.5,158.833 382.5,181.167 382.5,203.5C 340.833,203.5 299.167,203.5 257.5,203.5C 257.5,181.167 257.5,158.833 257.5,136.5 Z"/></g>
<g><path style="opacity:0.989" fill="#0070bc" d="M 428.5,136.5 C 469.833,136.5 511.167,136.5 552.5,136.5C 552.5,158.833 552.5,181.167 552.5,203.5C 511.167,203.5 469.833,203.5 428.5,203.5C 428.5,181.167 428.5,158.833 428.5,136.5 Z"/></g>
<g><path style="opacity:0.987" fill="#323332" d="M 598.5,136.5 C 635.5,136.5 672.5,136.5 709.5,136.5C 709.5,158.833 709.5,181.167 709.5,203.5C 701.833,203.5 694.167,203.5 686.5,203.5C 686.5,260.167 686.5,316.833 686.5,373.5C 664.167,373.5 641.833,373.5 619.5,373.5C 619.5,316.833 619.5,260.167 619.5,203.5C 612.5,203.5 605.5,203.5 598.5,203.5C 598.5,181.167 598.5,158.833 598.5,136.5 Z"/></g>
<g><path style="opacity:0.978" fill="#323332" d="M 754.5,136.5 C 776.833,136.5 799.167,136.5 821.5,136.5C 821.5,158.833 821.5,181.167 821.5,203.5C 799.167,203.5 776.833,203.5 754.5,203.5C 754.5,181.167 754.5,158.833 754.5,136.5 Z"/></g>
<g><path style="opacity:0.977" fill="#f6931d" d="M 257.5,221.5 C 299.167,221.5 340.833,221.5 382.5,221.5C 382.5,243.833 382.5,266.167 382.5,288.5C 340.833,288.5 299.167,288.5 257.5,288.5C 257.5,266.167 257.5,243.833 257.5,221.5 Z"/></g>
<g><path style="opacity:0.985" fill="#0070bc" d="M 428.5,221.5 C 469.833,221.5 511.167,221.5 552.5,221.5C 552.5,243.833 552.5,266.167 552.5,288.5C 511.167,288.5 469.833,288.5 428.5,288.5C 428.5,266.167 428.5,243.833 428.5,221.5 Z"/></g>
<g><path style="opacity:0.924" fill="#323332" d="M 790.5,248.5 C 804.172,247.164 816.839,249.997 828.5,257C 838.243,266.122 841.743,277.289 839,290.5C 836.749,299.672 832.415,307.672 826,314.5C 810.805,330.029 795.305,345.196 779.5,360C 801.497,360.5 823.497,360.667 845.5,360.5C 845.5,364.5 845.5,368.5 845.5,372.5C 816.5,372.5 787.5,372.5 758.5,372.5C 758.335,369.15 758.502,365.817 759,362.5C 777.86,344.396 796.526,326.062 815,307.5C 821.506,300.82 825.006,292.82 825.5,283.5C 825.039,271.203 818.706,264.036 806.5,262C 790.263,259.054 776.263,263.221 764.5,274.5C 761.025,272.192 757.692,269.692 754.5,267C 764.184,256.325 776.184,250.158 790.5,248.5 Z"/></g>
<g><path style="opacity:0.93" fill="#323332" d="M 901.5,248.5 C 924.399,246.858 940.899,256.191 951,276.5C 959.269,298.696 959.602,321.029 952,343.5C 939.687,369.569 919.52,378.735 891.5,371C 872.454,361.44 861.954,345.94 860,324.5C 856.626,302.715 860.959,282.715 873,264.5C 880.9,256.138 890.4,250.804 901.5,248.5 Z M 901.5,261.5 C 919.615,259.468 932.115,266.801 939,283.5C 943.655,298.236 944.655,313.236 942,328.5C 935.226,357.633 918.059,366.8 890.5,356C 882.406,349.318 877.239,340.818 875,330.5C 870.935,311.813 872.935,293.813 881,276.5C 886.221,269.154 893.054,264.154 901.5,261.5 Z"/></g>
<g><path style="opacity:0.924" fill="#323332" d="M 1003.5,248.5 C 1017.17,247.164 1029.84,249.997 1041.5,257C 1051.62,266.359 1055.12,277.859 1052,291.5C 1049.57,299.688 1045.57,307.021 1040,313.5C 1024.47,329.362 1008.64,344.862 992.5,360C 1014.5,360.5 1036.5,360.667 1058.5,360.5C 1058.5,364.5 1058.5,368.5 1058.5,372.5C 1029.5,372.5 1000.5,372.5 971.5,372.5C 971.335,369.15 971.502,365.817 972,362.5C 991.638,343.862 1010.97,324.862 1030,305.5C 1039.16,294.842 1040.83,283.175 1035,270.5C 1028.32,263.66 1020.15,260.66 1010.5,261.5C 997.61,261.115 986.61,265.448 977.5,274.5C 973.32,272.496 970.487,269.496 969,265.5C 978.52,255.656 990.02,249.99 1003.5,248.5 Z"/></g>
<g><path style="opacity:0.938" fill="#323332" d="M 1131.5,249.5 C 1136.54,249.173 1141.54,249.506 1146.5,250.5C 1126.36,276.477 1106.02,302.31 1085.5,328C 1102.5,328.5 1119.5,328.667 1136.5,328.5C 1136.5,319.167 1136.5,309.833 1136.5,300.5C 1140.83,300.5 1145.17,300.5 1149.5,300.5C 1149.5,309.833 1149.5,319.167 1149.5,328.5C 1157.5,328.5 1165.5,328.5 1173.5,328.5C 1173.5,332.5 1173.5,336.5 1173.5,340.5C 1165.5,340.5 1157.5,340.5 1149.5,340.5C 1149.5,351.167 1149.5,361.833 1149.5,372.5C 1144.83,372.5 1140.17,372.5 1135.5,372.5C 1135.5,361.833 1135.5,351.167 1135.5,340.5C 1112.83,340.5 1090.17,340.5 1067.5,340.5C 1066.87,335.48 1067.71,330.813 1070,326.5C 1090.99,301.168 1111.49,275.501 1131.5,249.5 Z"/></g>
<g><path style="opacity:0.977" fill="#f6931d" d="M 257.5,306.5 C 299.167,306.5 340.833,306.5 382.5,306.5C 382.5,328.833 382.5,351.167 382.5,373.5C 340.833,373.5 299.167,373.5 257.5,373.5C 257.5,351.167 257.5,328.833 257.5,306.5 Z"/></g>
<g><path style="opacity:0.985" fill="#0070bc" d="M 428.5,306.5 C 469.833,306.5 511.167,306.5 552.5,306.5C 552.5,328.833 552.5,351.167 552.5,373.5C 511.167,373.5 469.833,373.5 428.5,373.5C 428.5,351.167 428.5,328.833 428.5,306.5 Z"/></g>
</svg>
